control3min_grf.mot
version=1
nRows=22
nColumns 19
inDegrees=yes
endheader
time	1_ground_force_vx	1_ground_force_vy	1_ground_force_vz	1_ground_force_px	1_ground_force_py	1_ground_force_pz	1_ground_torque_x	1_ground_torque_y	1_ground_torque_z	2_ground_force_vx	2_ground_force_vy	2_ground_force_vz	2_ground_force_px	2_ground_force_py	2_ground_force_pz	2_ground_torque_x	2_ground_torque_y	2_ground_torque_z
            1.253500	          -12.883842	          587.956799	          -65.820023	           -0.117533	            0.006150	           -0.383478	           -0.041837	            1.909262	           -0.213736	           -0.090481	          810.970479	           62.632625	           -0.135773	            0.006011	           -0.702581	           -0.000176	            1.575787	            0.121701
            1.254000	          -12.743047	          581.283427	          -65.023550	           -0.117280	            0.006152	           -0.383761	           -0.043479	            1.983342	           -0.221861	            0.128532	          802.134379	           61.944013	           -0.135567	            0.006011	           -0.702329	            0.000272	            1.697718	            0.131105
            1.254500	          -12.602350	          575.150942	          -64.224773	           -0.117371	            0.006150	           -0.383391	           -0.036454	            1.663712	           -0.185780	            0.201535	          794.772069	           60.932220	           -0.135572	            0.006011	           -0.702435	            0.000434	            1.709740	            0.131079
            1.255000	          -12.507706	          568.297854	          -63.566531	           -0.117667	            0.006150	           -0.383375	           -0.024411	            1.109149	           -0.124063	            0.464678	          786.673325	           60.105433	           -0.135580	            0.006011	           -0.702395	            0.000996	            1.686363	            0.128846
            1.255500	          -12.047573	          562.708558	          -63.316503	           -0.117736	            0.006149	           -0.383047	           -0.018344	            0.856775	           -0.096405	            1.008962	          778.575140	           59.372381	           -0.135538	            0.006011	           -0.702427	            0.002123	            1.638253	            0.124930
            1.256000	          -11.448392	          554.413564	          -62.665696	           -0.117492	            0.006150	           -0.383419	           -0.020492	            0.992379	           -0.112169	            1.367840	          769.923795	           58.637438	           -0.135547	            0.006011	           -0.702268	            0.002812	            1.582691	            0.120538
            1.256500	          -10.621366	          547.382288	          -62.468614	           -0.117352	            0.006151	           -0.383517	           -0.027909	            1.438293	           -0.164142	            1.723916	          762.010306	           57.576627	           -0.135455	            0.006010	           -0.702060	            0.003566	            1.576182	            0.119095
            1.257000	          -10.664529	          541.430851	          -61.852017	           -0.117366	            0.006150	           -0.383395	           -0.034461	            1.749580	           -0.199869	            2.124991	          754.648298	           56.846264	           -0.135388	            0.006011	           -0.702217	            0.004546	            1.614350	            0.121606
            1.257500	          -10.387019	          535.479747	          -61.327936	           -0.117295	            0.006150	           -0.383369	           -0.032907	            1.696456	           -0.194293	            2.758802	          747.656801	           55.694762	           -0.135512	            0.006012	           -0.702517	            0.005903	            1.599846	            0.119176
            1.258000	          -10.475747	          528.626623	          -60.669247	           -0.117289	            0.006149	           -0.383146	           -0.024377	            1.230133	           -0.141180	            2.930966	          738.820532	           55.006170	           -0.135377	            0.006011	           -0.702320	            0.006457	            1.627754	            0.121188
            1.258500	          -10.335488	          521.774059	          -60.102830	           -0.117339	            0.006149	           -0.383246	           -0.014954	            0.754915	           -0.086958	            3.147923	          730.537418	           54.178745	           -0.135338	            0.006011	           -0.702140	            0.007109	            1.649729	            0.122349
            1.259000	          -10.104195	          516.003833	          -59.715434	           -0.117681	            0.006149	           -0.383104	           -0.010038	            0.512611	           -0.059323	            3.225784	          721.884510	           53.631634	           -0.135139	            0.006011	           -0.702046	            0.007206	            1.612617	            0.119808
            1.259500	           -9.505766	          509.331925	          -59.241094	           -0.117714	            0.006149	           -0.383159	           -0.014523	            0.778144	           -0.090507	            3.818809	          713.234848	           52.661951	           -0.135024	            0.006011	           -0.701871	            0.007623	            1.423764	            0.105124
            1.260000	           -8.769482	          502.118884	          -58.677710	           -0.117226	            0.006150	           -0.383463	           -0.021684	            1.241544	           -0.145087	            3.986943	          705.503880	           51.883445	           -0.135010	            0.006011	           -0.701968	            0.008605	            1.522621	            0.111975
            1.260500	           -8.491889	          495.086443	          -58.204119	           -0.116834	            0.006149	           -0.383084	           -0.024458	            1.425909	           -0.167635	            4.714536	          698.512052	           50.919616	           -0.135162	            0.006012	           -0.702287	            0.009895	            1.466065	            0.106872
            1.261000	           -8.305088	          488.773218	          -57.314510	           -0.116972	            0.006149	           -0.383231	           -0.024048	            1.415264	           -0.165957	            4.884021	          690.412513	           50.186724	           -0.135143	            0.006011	           -0.702132	            0.010491	            1.482979	            0.107799
            1.261500	           -8.439920	          482.100836	          -56.746645	           -0.117187	            0.006149	           -0.383177	           -0.015228	            0.869825	           -0.102384	            5.006676	          682.312760	           49.500780	           -0.135019	            0.006012	           -0.702275	            0.011414	            1.555525	            0.112851
            1.262000	           -8.391430	          476.329591	          -56.129511	           -0.117415	            0.006148	           -0.382840	           -0.008390	            0.476227	           -0.056117	            5.409019	          674.582850	           48.628319	           -0.134986	            0.006012	           -0.702076	            0.011950	            1.490278	            0.107429
            1.262500	           -8.296753	          469.296267	          -55.472041	           -0.117490	            0.006149	           -0.383246	           -0.007274	            0.411467	           -0.048637	            5.440071	          665.929439	           48.175084	           -0.135021	            0.006011	           -0.701974	            0.011896	            1.456250	            0.105349
            1.263000	           -7.515815	          462.986363	          -55.317606	           -0.117217	            0.006148	           -0.382873	           -0.011588	            0.713847	           -0.085290	            5.936155	          658.199533	           47.396438	           -0.134990	            0.006011	           -0.701823	            0.012688	            1.406789	            0.101302
            1.263500	           -7.055697	          456.856436	          -55.115748	           -0.117205	            0.006148	           -0.382929	           -0.016465	            1.066112	           -0.128617	            6.108963	          649.179230	           46.660261	           -0.134706	            0.006012	           -0.701813	            0.012715	            1.351201	            0.097119
            1.264000	           -6.364801	          449.642600	          -54.368819	           -0.116996	            0.006150	           -0.383279	           -0.019120	            1.350724	           -0.163324	            6.417044	          641.632347	           46.023137	           -0.134829	            0.006011	           -0.701752	            0.014284	            1.428276	            0.102448
